<svg width="64" height="64" viewBox="0 0 64 64" xmlns="http://www.w3.org/2000/svg" xmlns:xlink="http://www.w3.org/1999/xlink">
    <defs>
        <circle id="df0wswfoza" cx="32" cy="32" r="32"/>
    </defs>
    <g fill="none" fill-rule="evenodd">
        <g>
            <mask id="w7x6m8du9b" fill="#fff">
                <use xlink:href="#df0wswfoza"/>
            </mask>
            <use fill="#000" xlink:href="#df0wswfoza"/>
            <g mask="url(#w7x6m8du9b)">
                <path d="M50.339 16.378c.92 2.35.546 5.221-1.218 7.468-1.763 2.246-4.455 3.28-6.945 2.928-.921-2.35-.546-5.222 1.217-7.468 1.764-2.246 4.456-3.281 6.946-2.928M35.682 25.124a1.538 1.538 0 0 1 1.14-1.926l.61-.138.027-.006a1.538 1.538 0 0 1 1.857 1.252l1.381 8.43a1.058 1.058 0 0 1-.792 1.198l-.015.004.003.011-.306.063-.306.076-.003-.012a1.058 1.058 0 0 1-1.23-.743l-2.366-8.209z" fill="#FFF"/>
                <path d="M39.348 69.89c-2.711 12.002-14.772 19.454-26.776 16.304C1.936 83.405-4.993 72.935-3.44 62.051a21.57 21.57 0 0 1 6.283-12.43c3.553-3.476 5.944-7.969 7.04-12.817l.14-.624c1.749-7.74 9.328-12.624 17.066-10.903 7.726 1.776 12.528 9.454 10.78 17.193l-.143.63c-1.12 4.958-.715 10.106.955 14.906a21.556 21.556 0 0 1 .666 11.884" fill="#FF9FA2"/>
                <path d="M27.183 71.206c2.54 11.245 13.84 18.226 25.088 15.276 9.965-2.614 16.457-12.423 15-22.621a20.209 20.209 0 0 0-5.886-11.646c-3.33-3.257-5.57-7.466-6.595-12.009l-.132-.585c-1.638-7.25-8.74-11.827-15.99-10.214-7.239 1.664-11.737 8.857-10.1 16.108l.134.59c1.05 4.646.67 9.468-.895 13.967a20.195 20.195 0 0 0-.624 11.134" fill="#9E86FB"/>
                <path d="M39.222 69.984a21.556 21.556 0 0 0-.666-11.883c-1.67-4.801-2.075-9.949-.955-14.907l.142-.63a14.373 14.373 0 0 0-2.567-11.884 13.462 13.462 0 0 0-6.607 14.764l.133.59c1.05 4.645.67 9.468-.895 13.966a20.198 20.198 0 0 0-.624 11.134 20.384 20.384 0 0 0 5.599 10.055 21.78 21.78 0 0 0 6.44-11.205" fill="#3C316E"/>
                <path d="M14.746 11.592c-.983 2.509-.583 5.574 1.3 7.97 1.882 2.398 4.755 3.503 7.412 3.126.983-2.509.583-5.573-1.299-7.97-1.882-2.398-4.756-3.502-7.413-3.126M30.132 20.796a1.642 1.642 0 0 0-1.216-2.056l-.653-.148-.027-.006a1.642 1.642 0 0 0-1.982 1.336l-1.475 8.997a1.13 1.13 0 0 0 .846 1.28l.016.004-.003.011.326.068.327.08.003-.012a1.13 1.13 0 0 0 1.313-.793l2.525-8.761z" fill="#FFF"/>
            </g>
        </g>
        <circle cx="32" cy="32" r="31.75" stroke="#373C39" stroke-opacity=".1" stroke-width=".5"/>
    </g>
</svg>
