<svg width="50" height="50" viewBox="0 0 50 50" xmlns="http://www.w3.org/2000/svg">
    <g fill="none" fill-rule="evenodd">
        <path d="M25 2c12.703 0 23 10.297 23 23S37.703 48 25 48 2 37.703 2 25 12.297 2 25 2z" fill-opacity=".5" fill="#373C39"/>
        <path d="M25 14c6.075 0 11 4.925 11 11s-4.925 11-11 11-11-4.925-11-11 4.925-11 11-11zm0 2a9 9 0 1 0 0 18 9 9 0 0 0 0-18zm4.616 11.169a1 1 0 0 1 .208 1.399A5.992 5.992 0 0 1 25 31c-1.925 0-3.7-.914-4.824-2.432a1 1 0 0 1 1.607-1.19A3.992 3.992 0 0 0 25 29a3.992 3.992 0 0 0 3.217-1.622 1 1 0 0 1 1.399-.209zM21 21a2 2 0 1 1 0 4 2 2 0 0 1 0-4zm8 0a2 2 0 1 1 0 4 2 2 0 0 1 0-4z" fill="#FFF" fill-rule="nonzero"/>
    </g>
</svg>
