<svg width="50" height="50" viewBox="0 0 50 50" xmlns="http://www.w3.org/2000/svg">
    <g fill="none" fill-rule="evenodd">
        <path d="M25 2c12.703 0 23 10.297 23 23S37.703 48 25 48 2 37.703 2 25 12.297 2 25 2z" fill-opacity=".5" fill="#373C39"/>
        <path d="M20 14a6 6 0 0 0-6 6v10a6 6 0 0 0 6 6h10a6 6 0 0 0 6-6V20a6 6 0 0 0-6-6H20zm9 12c1.772 0 3.461.355 5 .996V30a4 4 0 0 1-4 4H20c-.978 0-1.873-.35-2.568-.933A12.995 12.995 0 0 1 29 26zm-9-10h10a4 4 0 0 1 4 4v4.853A14.976 14.976 0 0 0 29 24c-5.428 0-10.182 2.883-12.816 7.2A3.964 3.964 0 0 1 16 30V20a4 4 0 0 1 4-4zm.5 2a2.5 2.5 0 1 0 0 5 2.5 2.5 0 0 0 0-5z" fill="#FFF"/>
    </g>
</svg>
