<svg width="108" height="140" viewBox="0 0 108 140" xmlns="http://www.w3.org/2000/svg" xmlns:xlink="http://www.w3.org/1999/xlink">
    <defs>
        <linearGradient x1="50%" y1="2.576%" x2="50%" y2="100%" id="actc7cw82b">
            <stop stop-color="#ABD798" offset="0%"/>
            <stop stop-color="#78C36E" offset="100%"/>
        </linearGradient>
        <linearGradient x1="50%" y1="9.894%" x2="71.662%" y2="81.159%" id="heryu7oanh">
            <stop stop-color="#5ED87A" offset="0%"/>
            <stop stop-color="#25924C" offset="99.992%"/>
        </linearGradient>
        <filter x="-1.6%" y="-2.2%" width="103.1%" height="108.9%" filterUnits="objectBoundingBox" id="23ck2chwwe">
            <feOffset dy="2" in="SourceAlpha" result="shadowOffsetOuter1"/>
            <feComposite in="shadowOffsetOuter1" in2="SourceAlpha" operator="out" result="shadowOffsetOuter1"/>
            <feColorMatrix values="0 0 0 0 0.59583967 0 0 0 0 1 0 0 0 0 0.556383384 0 0 0 0.290264423 0" in="shadowOffsetOuter1"/>
        </filter>
        <filter x="-10.9%" y="-15.6%" width="121.9%" height="135.6%" filterUnits="objectBoundingBox" id="01lrsj3e0g">
            <feGaussianBlur stdDeviation="4" in="SourceAlpha" result="shadowBlurInner1"/>
            <feOffset dy="6" in="shadowBlurInner1" result="shadowOffsetInner1"/>
            <feComposite in="shadowOffsetInner1" in2="SourceAlpha" operator="arithmetic" k2="-1" k3="1" result="shadowInnerInner1"/>
            <feColorMatrix values="0 0 0 0 0 0 0 0 0 0 0 0 0 0 0 0 0 0 0.559959572 0" in="shadowInnerInner1"/>
        </filter>
        <path d="M44 0c10.838 0 19.998 7.782 22.978 18.47C79.588 26.206 88 40.12 88 56c0 24.3-19.7 44-44 44S0 80.3 0 56c0-15.88 8.412-29.794 21.022-37.53C24.002 7.781 33.162 0 44 0z" id="u459tos6pa"/>
        <path d="M12.092 69.394c4.452 0 8.062 5.353 8.062 11.956s-3.61 11.956-8.062 11.956-8.061-5.353-8.061-11.956 3.609-11.956 8.061-11.956zm40.307 0c4.453 0 8.062 5.353 8.062 11.956s-3.61 11.956-8.062 11.956-8.061-5.353-8.061-11.956 3.61-11.956 8.061-11.956zm-3.923-5.909c.878-1.799 5.029-2.566 9.27-1.712 4.242.853 6.968 3.003 6.09 4.803-.88 1.799-3.05-1.489-7.292-2.342-4.241-.853-8.947 1.05-8.068-.749zm-32.952 0c.88 1.8-3.827-.104-8.068.749-4.242.853-6.413 4.14-7.291 2.342-.879-1.8 1.847-3.95 6.089-4.803 4.241-.854 8.392-.087 9.27 1.712zm13.227 33.806h6.99a4.566 4.566 0 1 1 0 9.133h-6.99a4.566 4.566 0 1 1 0-9.133z" id="7iehb1p53f"/>
        <radialGradient cx="50%" cy="50.788%" fx="50%" fy="50.788%" r="49.212%" id="ua14sbr8gc">
            <stop stop-color="#FF8100" stop-opacity=".242" offset="0%"/>
            <stop stop-color="#B3A100" stop-opacity="0" offset="100%"/>
        </radialGradient>
    </defs>
    <g fill="none" fill-rule="evenodd">
        <g transform="translate(10 34)">
            <mask id="h260q5qk1d" fill="#fff">
                <use xlink:href="#u459tos6pa"/>
            </mask>
            <use fill="url(#actc7cw82b)" fill-rule="nonzero" xlink:href="#u459tos6pa"/>
            <circle fill="url(#ua14sbr8gc)" mask="url(#h260q5qk1d)" cx="72" cy="73" r="14"/>
            <circle fill="url(#ua14sbr8gc)" mask="url(#h260q5qk1d)" cx="16" cy="73" r="14"/>
            <path d="M44 1.5c5.001 0 9.618 1.778 13.347 4.776 3.856 3.1 6.765 7.5 8.186 12.597.053.19.103.379.152.569.17.1.34.203.509.307C78.374 27.22 86.5 40.662 86.5 56c0 11.736-4.757 22.361-12.448 30.052C66.362 93.743 55.736 98.5 44 98.5s-22.361-4.757-30.052-12.448C6.257 78.362 1.5 67.736 1.5 56c0-15.338 8.126-28.779 20.306-36.252l.51-.309c.048-.189.098-.378.15-.567 1.422-5.097 4.331-9.497 8.187-12.597C34.383 3.278 39 1.5 44 1.5z" stroke-opacity=".402" stroke="#AECFA9" stroke-width="3" mask="url(#h260q5qk1d)"/>
        </g>
        <g transform="translate(22 8.576)">
            <use fill="#000" filter="url(#23ck2chwwe)" xlink:href="#7iehb1p53f"/>
            <use fill-opacity=".412" fill="#285F32" xlink:href="#7iehb1p53f"/>
            <use fill="#000" filter="url(#01lrsj3e0g)" xlink:href="#7iehb1p53f"/>
        </g>
        <path d="M39.6 12.813c.578-2.045-.65-4.166-2.685-4.635l-1.443-.333-.06-.013c-2.037-.47-4.04.908-4.378 3.01L28.162 27.89c-.21 1.311.603 2.567 1.868 2.884l.03.036.72.152.722.18.006-.027c1.277.27 2.54-.51 2.902-1.788l5.19-16.514zM5.024 1.164C4.46 6.526 6.81 12.261 11.63 15.95c4.82 3.688 10.848 4.367 15.698 2.285.563-5.362-1.787-11.096-6.606-14.785C15.903-.239 9.874-.917 5.024 1.164" fill="url(#heryu7oanh)" transform="translate(22 8.576)"/>
    </g>
</svg>
