<svg width="109" height="140" viewBox="0 0 109 140" xmlns="http://www.w3.org/2000/svg" xmlns:xlink="http://www.w3.org/1999/xlink">
    <defs>
        <linearGradient x1="50%" y1="2.576%" x2="50%" y2="100%" id="yaeztihy7b">
            <stop stop-color="#9AFE58" offset="0%"/>
            <stop stop-color="#FFD438" offset="100%"/>
        </linearGradient>
        <linearGradient x1="50%" y1="9.894%" x2="71.662%" y2="81.159%" id="c8ykj16nle">
            <stop stop-color="#5ED87A" offset="0%"/>
            <stop stop-color="#25924C" offset="99.992%"/>
        </linearGradient>
        <linearGradient x1="50%" y1="0%" x2="50%" y2="100%" id="d6ada5s5ok">
            <stop stop-color="red" offset="0%"/>
            <stop stop-color="#B20808" offset="100%"/>
        </linearGradient>
        <filter x="-1.6%" y="-2.1%" width="103.2%" height="108.6%" filterUnits="objectBoundingBox" id="9xc443i7sf">
            <feOffset dy="2" in="SourceAlpha" result="shadowOffsetOuter1"/>
            <feComposite in="shadowOffsetOuter1" in2="SourceAlpha" operator="out" result="shadowOffsetOuter1"/>
            <feColorMatrix values="0 0 0 0 1 0 0 0 0 0.974018957 0 0 0 0 0.556383384 0 0 0 0.462767701 0" in="shadowOffsetOuter1"/>
        </filter>
        <filter x="-11.3%" y="-15%" width="122.6%" height="134.3%" filterUnits="objectBoundingBox" id="0i3wu9qosh">
            <feGaussianBlur stdDeviation="4" in="SourceAlpha" result="shadowBlurInner1"/>
            <feOffset dy="6" in="shadowBlurInner1" result="shadowOffsetInner1"/>
            <feComposite in="shadowOffsetInner1" in2="SourceAlpha" operator="arithmetic" k2="-1" k3="1" result="shadowInnerInner1"/>
            <feColorMatrix values="0 0 0 0 0 0 0 0 0 0 0 0 0 0 0 0 0 0 0.559959572 0" in="shadowInnerInner1"/>
        </filter>
        <filter x="-2.6%" y="-3%" width="107.9%" height="112%" filterUnits="objectBoundingBox" id="56cnqmzbpi">
            <feOffset dx="1" dy="2" in="SourceAlpha" result="shadowOffsetOuter1"/>
            <feColorMatrix values="0 0 0 0 1 0 0 0 0 1 0 0 0 0 1 0 0 0 0.462767701 0" in="shadowOffsetOuter1"/>
        </filter>
        <path d="M44 0c10.838 0 19.998 7.782 22.978 18.47C79.588 26.206 88 40.12 88 56c0 24.3-19.7 44-44 44S0 80.3 0 56c0-15.88 8.412-29.794 21.022-37.53C24.002 7.781 33.162 0 44 0z" id="3j2okp199a"/>
        <path d="M10.795 62.424c5.961 0 10.794 4.833 10.794 10.795 0 5.961-4.833-2.64-10.794-2.64C4.833 70.58 0 79.18 0 73.22c0-5.962 4.833-10.795 10.795-10.795zm40.41 0C57.167 62.424 62 67.257 62 73.219c0 5.961-4.833-2.64-10.795-2.64-5.961 0-10.794 8.601-10.794 2.64 0-5.962 4.833-10.795 10.794-10.795zm-19.702 34.8c1.184-.725 5.767-2.259 5.767-5.11 0-4.35-10.664-6.338-3.567-6.338 7.098 0 9.172 1.988 9.172 6.338 0 3.232.503 4.77-4.042 5.347 4.547.774 4.042 2.702 4.042 5.933 0 4.35-2.074 5.632-9.172 5.632l-1.19-.018c-4.533-.167 4.757-1.554 4.757-5.614 0-2.9-4.738-4.75-5.796-5.66l-.199-.22v-.128c.024-.063.097-.117.228-.162z" id="mgmhp8cmgg"/>
        <path d="m74.872 81.424-.545.03-.415.04a8.983 8.983 0 0 0-4.288 1.734l-.442.359-4.02 3.652-3.76-3.477-.35-.302a8.947 8.947 0 0 0-5.687-2.035c-5.047 0-9.165 4.19-9.165 9.399 0 3.441 1.34 7.232 4.163 11.418 2.645 3.921 7.333 7.997 14.208 12.225l.629.382 1.41-.869c6.46-4.062 10.887-7.973 13.427-11.738 2.823-4.186 4.163-7.977 4.163-11.418 0-5.05-3.872-9.145-8.709-9.388l-.619-.012z" id="hf7127takj"/>
        <radialGradient cx="50%" cy="50.788%" fx="50%" fy="50.788%" r="49.212%" id="zljnd47b2d">
            <stop stop-color="#FF8100" stop-opacity=".242" offset="0%"/>
            <stop stop-color="#B3A100" stop-opacity="0" offset="100%"/>
        </radialGradient>
    </defs>
    <g fill="none" fill-rule="evenodd">
        <g transform="translate(10 34)">
            <mask id="gyuwtno8ac" fill="#fff">
                <use xlink:href="#3j2okp199a"/>
            </mask>
            <use fill="url(#yaeztihy7b)" fill-rule="nonzero" xlink:href="#3j2okp199a"/>
            <path d="M44 1.5c5.001 0 9.618 1.778 13.347 4.776 3.856 3.1 6.765 7.5 8.186 12.597.053.19.103.379.152.569.17.1.34.203.509.307C78.374 27.22 86.5 40.662 86.5 56c0 11.736-4.757 22.361-12.448 30.052C66.362 93.743 55.736 98.5 44 98.5s-22.361-4.757-30.052-12.448C6.257 78.362 1.5 67.736 1.5 56c0-15.338 8.126-28.779 20.306-36.252l.51-.309c.048-.189.098-.378.15-.567 1.422-5.097 4.331-9.497 8.187-12.597C34.383 3.278 39 1.5 44 1.5z" stroke-opacity=".402" stroke="#E3E433" stroke-width="3" mask="url(#gyuwtno8ac)"/>
            <circle fill="url(#zljnd47b2d)" mask="url(#gyuwtno8ac)" cx="72" cy="73" r="14"/>
            <circle fill="url(#zljnd47b2d)" mask="url(#gyuwtno8ac)" cx="16" cy="73" r="14"/>
        </g>
        <path d="M38.6 12.813c.578-2.045-.65-4.166-2.685-4.635l-1.443-.333-.06-.013c-2.037-.47-4.04.908-4.378 3.01L27.162 27.89c-.21 1.311.603 2.567 1.868 2.884l.03.036.72.152.722.18.006-.027c1.277.27 2.54-.51 2.902-1.788l5.19-16.514zM4.024 1.164C3.46 6.526 5.81 12.261 10.63 15.95c4.82 3.688 10.848 4.367 15.698 2.285.563-5.362-1.787-11.096-6.606-14.785C14.903-.239 8.874-.917 4.024 1.164" fill="url(#c8ykj16nle)" transform="translate(23 8.576)"/>
        <g transform="translate(23 8.576)">
            <use fill="#000" filter="url(#9xc443i7sf)" xlink:href="#mgmhp8cmgg"/>
            <use fill-opacity=".412" fill="#629C1E" xlink:href="#mgmhp8cmgg"/>
            <use fill="#000" filter="url(#0i3wu9qosh)" xlink:href="#mgmhp8cmgg"/>
        </g>
        <g transform="translate(23 8.576)">
            <use fill="#000" filter="url(#56cnqmzbpi)" xlink:href="#hf7127takj"/>
            <use fill="url(#d6ada5s5ok)" xlink:href="#hf7127takj"/>
        </g>
    </g>
</svg>
