<svg width="108" height="140" viewBox="0 0 108 140" xmlns="http://www.w3.org/2000/svg" xmlns:xlink="http://www.w3.org/1999/xlink">
    <defs>
        <filter x="-9.1%" y="-8%" width="118.2%" height="116%" filterUnits="objectBoundingBox" id="8pmmcg19sd">
            <feGaussianBlur stdDeviation="2" in="SourceAlpha" result="shadowBlurInner1"/>
            <feOffset dy="4" in="shadowBlurInner1" result="shadowOffsetInner1"/>
            <feComposite in="shadowOffsetInner1" in2="SourceAlpha" operator="arithmetic" k2="-1" k3="1" result="shadowInnerInner1"/>
            <feColorMatrix values="0 0 0 0 1 0 0 0 0 1 0 0 0 0 1 0 0 0 0.5 0" in="shadowInnerInner1" result="shadowMatrixInner1"/>
            <feGaussianBlur stdDeviation="6" in="SourceAlpha" result="shadowBlurInner2"/>
            <feOffset dy="-4" in="shadowBlurInner2" result="shadowOffsetInner2"/>
            <feComposite in="shadowOffsetInner2" in2="SourceAlpha" operator="arithmetic" k2="-1" k3="1" result="shadowInnerInner2"/>
            <feColorMatrix values="0 0 0 0 0.326341712 0 0 0 0 0.326341712 0 0 0 0 0.326341712 0 0 0 0.397399476 0" in="shadowInnerInner2" result="shadowMatrixInner2"/>
            <feMerge>
                <feMergeNode in="shadowMatrixInner1"/>
                <feMergeNode in="shadowMatrixInner2"/>
            </feMerge>
        </filter>
        <filter x="-1.8%" y="-2.4%" width="103.6%" height="109.8%" filterUnits="objectBoundingBox" id="tm99vo5scg">
            <feOffset dy="2" in="SourceAlpha" result="shadowOffsetOuter1"/>
            <feComposite in="shadowOffsetOuter1" in2="SourceAlpha" operator="out" result="shadowOffsetOuter1"/>
            <feColorMatrix values="0 0 0 0 0.872990263 0 0 0 0 0.872990263 0 0 0 0 0.872990263 0 0 0 0.462767701 0" in="shadowOffsetOuter1"/>
        </filter>
        <filter x="-12.5%" y="-17.1%" width="125%" height="139%" filterUnits="objectBoundingBox" id="3yyqwe7rui">
            <feGaussianBlur stdDeviation="4" in="SourceAlpha" result="shadowBlurInner1"/>
            <feOffset dy="6" in="shadowBlurInner1" result="shadowOffsetInner1"/>
            <feComposite in="shadowOffsetInner1" in2="SourceAlpha" operator="arithmetic" k2="-1" k3="1" result="shadowInnerInner1"/>
            <feColorMatrix values="0 0 0 0 0 0 0 0 0 0 0 0 0 0 0 0 0 0 0.271716565 0" in="shadowInnerInner1"/>
        </filter>
        <path d="M44 0c10.838 0 19.998 7.782 22.978 18.47C79.588 26.206 88 40.12 88 56c0 24.3-19.7 44-44 44S0 80.3 0 56c0-15.88 8.412-29.794 21.022-37.53C24.002 7.781 33.162 0 44 0z" id="q8fmvcwwha"/>
        <path d="M44 0c10.838 0 19.998 7.782 22.978 18.47C79.588 26.206 88 40.12 88 56c0 24.3-19.7 44-44 44S0 80.3 0 56c0-15.88 8.412-29.794 21.022-37.53C24.002 7.781 33.162 0 44 0z" id="js9whtszle"/>
        <path d="M8 85.424c4.418 0 8-4.477 8-10s-3.582-10-8-10-8 4.477-8 10 3.582 10 8 10zm40 0c4.418 0 8-4.477 8-10s-3.582-10-8-10-8 4.477-8 10 3.582 10 8 10zm-20 21c10.493 0 19-9.406 19-13.164 0-3.757-5.206 6.361-19 6.361S9 89.503 9 93.261c0 3.757 8.507 13.163 19 13.163z" id="bbqvvyd51h"/>
        <linearGradient x1="50%" y1="2.576%" x2="50%" y2="100%" id="qljs6y5w8b">
            <stop stop-color="#F7F7F7" offset="0%"/>
            <stop stop-color="#FFF" offset="100%"/>
        </linearGradient>
        <linearGradient x1="50%" y1="9.894%" x2="71.662%" y2="81.159%" id="rqitod1fgj">
            <stop stop-color="#DDD" offset="0%"/>
            <stop stop-color="#AEAEAE" offset="99.992%"/>
        </linearGradient>
        <radialGradient cx="50%" cy="50.788%" fx="50%" fy="50.788%" r="49.212%" id="vbrbyqemzf">
            <stop stop-color="#B4B4B4" stop-opacity=".242" offset="0%"/>
            <stop stop-color="#C7C7C7" stop-opacity="0" offset="100%"/>
        </radialGradient>
    </defs>
    <g fill="none" fill-rule="evenodd">
        <g transform="translate(10 34)">
            <mask id="10bw3speic" fill="#fff">
                <use xlink:href="#q8fmvcwwha"/>
            </mask>
            <use fill="url(#qljs6y5w8b)" fill-rule="nonzero" xlink:href="#q8fmvcwwha"/>
            <g fill-rule="nonzero" mask="url(#10bw3speic)" fill="#000">
                <use filter="url(#8pmmcg19sd)" xlink:href="#js9whtszle"/>
            </g>
            <circle fill="url(#vbrbyqemzf)" mask="url(#10bw3speic)" cx="72" cy="73" r="14"/>
            <circle fill="url(#vbrbyqemzf)" mask="url(#10bw3speic)" cx="16" cy="73" r="14"/>
            <path d="M44 1.5c5.001 0 9.618 1.778 13.347 4.776 3.856 3.1 6.765 7.5 8.186 12.597.053.19.103.379.152.569.17.1.34.203.509.307C78.374 27.22 86.5 40.662 86.5 56c0 11.736-4.757 22.361-12.448 30.052C66.362 93.743 55.736 98.5 44 98.5s-22.361-4.757-30.052-12.448C6.257 78.362 1.5 67.736 1.5 56c0-15.338 8.126-28.779 20.306-36.252l.51-.309c.048-.189.098-.378.15-.567 1.422-5.097 4.331-9.497 8.187-12.597C34.383 3.278 39 1.5 44 1.5z" stroke-opacity=".402" stroke="#CFCFCF" stroke-width="3" mask="url(#10bw3speic)"/>
        </g>
        <g transform="translate(26 8.576)">
            <use fill="#000" filter="url(#tm99vo5scg)" xlink:href="#bbqvvyd51h"/>
            <use fill-opacity=".412" fill="#898989" xlink:href="#bbqvvyd51h"/>
            <use fill="#000" filter="url(#3yyqwe7rui)" xlink:href="#bbqvvyd51h"/>
        </g>
        <path d="M35.6 12.813c.578-2.045-.65-4.166-2.685-4.635l-1.443-.333-.06-.013c-2.037-.47-4.04.908-4.378 3.01L24.162 27.89c-.21 1.311.603 2.567 1.868 2.884l.03.036.72.152.722.18.006-.027c1.277.27 2.54-.51 2.902-1.788l5.19-16.514zM1.024 1.164C.46 6.526 2.81 12.261 7.63 15.95c4.82 3.688 10.848 4.367 15.698 2.285.563-5.362-1.787-11.096-6.606-14.785C11.903-.239 5.874-.917 1.024 1.164" fill="url(#rqitod1fgj)" transform="translate(26 8.576)"/>
    </g>
</svg>
