<svg width="108" height="140" viewBox="0 0 108 140" xmlns="http://www.w3.org/2000/svg" xmlns:xlink="http://www.w3.org/1999/xlink">
    <defs>
        <linearGradient x1="50%" y1="2.576%" x2="50%" y2="100%" id="jmt5gt2bnb">
            <stop stop-color="#FFEA75" offset="0%"/>
            <stop stop-color="#9BE65F" offset="100%"/>
        </linearGradient>
        <linearGradient x1="50%" y1="0%" x2="69.169%" y2="88.845%" id="e2cqmbr3ee">
            <stop stop-color="#A9AF2D" offset="0%"/>
            <stop stop-color="#BF5478" offset="100%"/>
        </linearGradient>
        <linearGradient x1="50%" y1="0%" x2="50%" y2="100%" id="h680fv5t3h">
            <stop stop-color="red" offset="0%"/>
            <stop stop-color="#9B0505" offset="100%"/>
        </linearGradient>
        <filter x="-1.1%" y="-2.8%" width="104.5%" height="111.1%" filterUnits="objectBoundingBox" id="vo3u6cibbf">
            <feOffset dx="2" dy="2" in="SourceAlpha" result="shadowOffsetOuter1"/>
            <feComposite in="shadowOffsetOuter1" in2="SourceAlpha" operator="out" result="shadowOffsetOuter1"/>
            <feColorMatrix values="0 0 0 0 1 0 0 0 0 1 0 0 0 0 1 0 0 0 0.462767701 0" in="shadowOffsetOuter1"/>
        </filter>
        <filter x="-2.5%" y="-5.2%" width="105%" height="120.8%" filterUnits="objectBoundingBox" id="4m5tqc1q1i">
            <feOffset dy="2" in="SourceAlpha" result="shadowOffsetOuter1"/>
            <feComposite in="shadowOffsetOuter1" in2="SourceAlpha" operator="out" result="shadowOffsetOuter1"/>
            <feColorMatrix values="0 0 0 0 1 0 0 0 0 0.907491006 0 0 0 0 0.556383384 0 0 0 0.462767701 0" in="shadowOffsetOuter1"/>
        </filter>
        <filter x="-17.5%" y="-36.5%" width="135%" height="183.3%" filterUnits="objectBoundingBox" id="0ni6jpyrdk">
            <feGaussianBlur stdDeviation="4" in="SourceAlpha" result="shadowBlurInner1"/>
            <feOffset dy="6" in="shadowBlurInner1" result="shadowOffsetInner1"/>
            <feComposite in="shadowOffsetInner1" in2="SourceAlpha" operator="arithmetic" k2="-1" k3="1" result="shadowInnerInner1"/>
            <feColorMatrix values="0 0 0 0 0 0 0 0 0 0 0 0 0 0 0 0 0 0 0.559959572 0" in="shadowInnerInner1"/>
        </filter>
        <path d="M44 0c10.838 0 19.998 7.782 22.978 18.47C79.588 26.206 88 40.12 88 56c0 24.3-19.7 44-44 44S0 80.3 0 56c0-15.88 8.412-29.794 21.022-37.53C24.002 7.781 33.162 0 44 0z" id="7utdzok57a"/>
        <path d="m30.881 44-.587.032-.447.044a9.675 9.675 0 0 0-4.619 1.867l-.475.386-4.33 3.934-4.05-3.745-.376-.325a9.637 9.637 0 0 0-6.126-2.192C4.435 44 0 48.514 0 54.124c0 3.706 1.443 7.79 4.484 12.298 2.849 4.223 7.898 8.613 15.303 13.167l.677.411 1.52-.935c6.957-4.376 11.724-8.588 14.46-12.643 3.04-4.509 4.484-8.592 4.484-12.298 0-5.44-4.17-9.849-9.38-10.111L30.881 44zm47.2 0-.587.032-.447.044a9.675 9.675 0 0 0-4.619 1.867l-.475.386-4.33 3.934-4.05-3.745-.376-.325a9.637 9.637 0 0 0-6.126-2.192c-5.436 0-9.871 4.513-9.871 10.123 0 3.706 1.443 7.79 4.484 12.298 2.849 4.223 7.898 8.613 15.303 13.167l.677.411 1.52-.935c6.957-4.376 11.724-8.588 14.46-12.643 3.04-4.509 4.484-8.592 4.484-12.298 0-5.44-4.17-9.849-9.38-10.111L78.081 44z" id="auz7251gxg"/>
        <path d="M24 87.408c0-5.03 5.48 5.03 20 5.03l.433-.002C58.629 92.239 64 82.429 64 87.408c0 10.413-8.954 17.792-20 17.792s-20-7.38-20-17.792z" id="u5z5aifxuj"/>
        <radialGradient cx="50%" cy="50%" fx="50%" fy="50%" r="40.36%" id="rpn3fbbgpd">
            <stop stop-color="red" stop-opacity=".81" offset="0%"/>
            <stop stop-color="red" stop-opacity="0" offset="100%"/>
        </radialGradient>
    </defs>
    <g fill="none" fill-rule="evenodd">
        <g transform="translate(10 34)">
            <mask id="ynkf28ro2c" fill="#fff">
                <use xlink:href="#7utdzok57a"/>
            </mask>
            <use fill="url(#jmt5gt2bnb)" fill-rule="nonzero" xlink:href="#7utdzok57a"/>
            <path d="M44 1.5c5.001 0 9.618 1.778 13.347 4.776 3.856 3.1 6.765 7.5 8.186 12.597.053.19.103.379.152.569.17.1.34.203.509.307C78.374 27.22 86.5 40.662 86.5 56c0 11.736-4.757 22.361-12.448 30.052C66.362 93.743 55.736 98.5 44 98.5s-22.361-4.757-30.052-12.448C6.257 78.362 1.5 67.736 1.5 56c0-15.338 8.126-28.779 20.306-36.252l.51-.309c.048-.189.098-.378.15-.567 1.422-5.097 4.331-9.497 8.187-12.597C34.383 3.278 39 1.5 44 1.5z" stroke-opacity=".204" stroke="#58C94C" stroke-width="3" mask="url(#ynkf28ro2c)"/>
            <circle fill="url(#rpn3fbbgpd)" opacity=".325" mask="url(#ynkf28ro2c)" cx="12" cy="56" r="16"/>
            <circle fill="url(#rpn3fbbgpd)" opacity=".325" mask="url(#ynkf28ro2c)" cx="76" cy="56" r="16"/>
        </g>
        <path d="M51.6 15.389c.578-2.045-.65-4.166-2.685-4.635l-1.503-.346c-2.037-.47-4.04.908-4.378 3.01l-2.872 17.048c-.21 1.311.603 2.567 1.868 2.884l.03.036.72.152.722.18.006-.027c1.223.259 2.435-.447 2.852-1.63l5.24-16.672zM21.021.145c-1.932 5.033-1.145 11.181 2.555 15.99 3.7 4.81 9.348 7.026 14.571 6.27 1.932-5.032 1.146-11.18-2.554-15.99-3.7-4.81-9.348-7.026-14.572-6.27z" fill="url(#e2cqmbr3ee)" transform="translate(10 6)"/>
        <g transform="translate(10 6)">
            <use fill="#000" filter="url(#vo3u6cibbf)" xlink:href="#auz7251gxg"/>
            <path stroke-opacity=".5" stroke="#991D1D" stroke-width="2" d="m30.908 45 .605.012c2.342.122 4.447 1.18 5.965 2.817a9.223 9.223 0 0 1 2.45 6.295c0 3.543-1.41 7.435-4.314 11.739-2.677 3.968-7.357 8.075-14.155 12.35l-.999.615c-7.397-4.548-12.357-8.83-15.147-12.965C2.41 61.559 1 57.667 1 54.123c0-2.526.995-4.807 2.605-6.458 1.605-1.646 3.822-2.664 6.266-2.664 2.004 0 3.912.684 5.471 1.949l5.077 4.668 4.986-4.53.44-.358a8.669 8.669 0 0 1 4.102-1.659l.96-.07zm47.2 0 .605.012c2.342.122 4.447 1.18 5.965 2.817a9.223 9.223 0 0 1 2.45 6.295c0 3.543-1.41 7.435-4.314 11.739-2.677 3.968-7.357 8.075-14.155 12.35l-.999.615c-7.397-4.548-12.357-8.83-15.147-12.965-2.903-4.304-4.313-8.196-4.313-11.74 0-2.526.995-4.807 2.605-6.458 1.605-1.646 3.822-2.664 6.266-2.664 2.004 0 3.912.684 5.471 1.949l5.077 4.668 4.986-4.53.44-.358a8.669 8.669 0 0 1 4.102-1.659l.96-.07z" stroke-linejoin="square" fill="url(#h680fv5t3h)"/>
        </g>
        <g transform="translate(10 6)">
            <use fill="#000" filter="url(#4m5tqc1q1i)" xlink:href="#u5z5aifxuj"/>
            <use fill-opacity=".412" fill="#6F4B14" xlink:href="#u5z5aifxuj"/>
            <use fill="#000" filter="url(#0ni6jpyrdk)" xlink:href="#u5z5aifxuj"/>
        </g>
    </g>
</svg>
