<svg width="108" height="140" viewBox="0 0 108 140" xmlns="http://www.w3.org/2000/svg" xmlns:xlink="http://www.w3.org/1999/xlink">
    <defs>
        <linearGradient x1="50%" y1="2.576%" x2="50%" y2="100%" id="w8du5wpcjb">
            <stop stop-color="#DC86D8" offset="0%"/>
            <stop stop-color="#8DEEB0" offset="100%"/>
        </linearGradient>
        <linearGradient x1="50%" y1="0%" x2="86.128%" y2="100%" id="smxiu7k3fd">
            <stop stop-color="#746BDE" offset="0%"/>
            <stop stop-color="#D8D5FF" offset="100%"/>
        </linearGradient>
        <linearGradient x1="0%" y1="86.825%" x2="26.492%" y2="-12.425%" id="btbo2fxwce">
            <stop stop-color="#1F159A" offset="0%"/>
            <stop stop-color="#7E75EA" offset="100%"/>
        </linearGradient>
        <linearGradient x1="-22.085%" y1="50%" x2="77.278%" y2="97.775%" id="4ol168vwzf">
            <stop stop-color="#1F159A" offset="0%"/>
            <stop stop-color="#7E75EA" offset="100%"/>
        </linearGradient>
        <linearGradient x1="37.714%" y1="88.54%" x2="44.224%" y2="-15.332%" id="cjsbf9ivag">
            <stop stop-color="#1F159A" offset="0%"/>
            <stop stop-color="#7E75EA" offset="100%"/>
        </linearGradient>
        <filter x="-1.5%" y="-2%" width="102.9%" height="108%" filterUnits="objectBoundingBox" id="04ufdjyrkh">
            <feOffset dy="2" in="SourceAlpha" result="shadowOffsetOuter1"/>
            <feComposite in="shadowOffsetOuter1" in2="SourceAlpha" operator="out" result="shadowOffsetOuter1"/>
            <feColorMatrix values="0 0 0 0 0.556383384 0 0 0 0 1 0 0 0 0 0.937616413 0 0 0 0.18482299 0" in="shadowOffsetOuter1"/>
        </filter>
        <filter x="-10.3%" y="-14%" width="120.6%" height="132%" filterUnits="objectBoundingBox" id="esckn9s89j">
            <feGaussianBlur stdDeviation="4" in="SourceAlpha" result="shadowBlurInner1"/>
            <feOffset dy="6" in="shadowBlurInner1" result="shadowOffsetInner1"/>
            <feComposite in="shadowOffsetInner1" in2="SourceAlpha" operator="arithmetic" k2="-1" k3="1" result="shadowInnerInner1"/>
            <feColorMatrix values="0 0 0 0 0 0 0 0 0 0 0 0 0 0 0 0 0 0 0.559959572 0" in="shadowInnerInner1"/>
        </filter>
        <path d="M44 0c10.838 0 19.998 7.782 22.978 18.47C79.588 26.206 88 40.12 88 56c0 24.3-19.7 44-44 44S0 80.3 0 56c0-15.88 8.412-29.794 21.022-37.53C24.002 7.781 33.162 0 44 0z" id="joeskkwgha"/>
        <path d="M41.482 96.066c2.842 3.96 13.619 1.56 20.326-2.88 6.708-4.441 8.197-13.543 3.327-20.329-4.87-6.786-15.639-6.953-20.543 0-4.905 6.953-5.952 19.248-3.11 23.209zm-14.964 0c-2.842 3.96-13.619 1.56-20.326-2.88-6.708-4.441-8.197-13.543-3.327-20.329 4.87-6.786 15.639-6.953 20.543 0 4.905 6.953 5.952 19.248 3.11 23.209zm7.043 21.639c12.357 0 22.374-9.217 22.374-12.899 0-3.681-6.13 6.233-22.374 6.233-16.243 0-22.374-9.914-22.374-6.233 0 3.682 10.017 12.899 22.374 12.899z" id="2mr4yohusi"/>
    </defs>
    <g fill="none" fill-rule="evenodd">
        <g transform="translate(10 34)">
            <mask id="bqzscm48pc" fill="#fff">
                <use xlink:href="#joeskkwgha"/>
            </mask>
            <use fill="url(#w8du5wpcjb)" fill-rule="nonzero" xlink:href="#joeskkwgha"/>
            <path d="M44 1.5c5.001 0 9.618 1.778 13.347 4.776 3.856 3.1 6.765 7.5 8.186 12.597.053.19.103.379.152.569.17.1.34.203.509.307C78.374 27.22 86.5 40.662 86.5 56c0 11.736-4.757 22.361-12.448 30.052C66.362 93.743 55.736 98.5 44 98.5s-22.361-4.757-30.052-12.448C6.257 78.362 1.5 67.736 1.5 56c0-15.338 8.126-28.779 20.306-36.252l.51-.309c.048-.189.098-.378.15-.567 1.422-5.097 4.331-9.497 8.187-12.597C34.383 3.278 39 1.5 44 1.5z" stroke-opacity=".402" stroke="#D1C6FF" stroke-width="3" mask="url(#bqzscm48pc)"/>
        </g>
        <path d="M5.423 3.477c-2.056 5.357-1.22 11.9 2.719 17.019 3.938 5.119 9.948 7.477 15.508 6.673 2.056-5.357 1.22-11.9-2.718-17.019-3.938-5.118-9.95-7.477-15.509-6.673" fill="url(#smxiu7k3fd)" transform="rotate(-27 29.983 -27.959)"/>
        <path d="M7.644 6.326C6.524 11.6 8.262 17.55 12.67 21.72c4.407 4.172 10.331 5.477 15.373 3.914 1.12-5.274-.618-11.223-5.025-15.395C18.61 6.07 12.685 4.763 7.644 6.326" fill="url(#btbo2fxwce)" transform="translate(21.333 2.295)"/>
        <path d="M15.036 6.009c-.695 3.273.384 6.967 3.12 9.557 2.736 2.59 6.414 3.4 9.544 2.43.696-3.274-.383-6.968-3.12-9.558-2.735-2.59-6.414-3.4-9.544-2.43" fill="url(#4ol168vwzf)" transform="translate(21.333 2.295)"/>
        <path d="M40.267 19.094c.578-2.046-.65-4.166-2.685-4.635l-1.443-.333-.06-.014c-2.037-.469-4.04.909-4.378 3.011L28.829 34.17c-.21 1.312.603 2.568 1.868 2.885l.03.036.72.152.721.18.007-.027c1.277.27 2.54-.51 2.902-1.788l5.19-16.514z" fill="url(#cjsbf9ivag)" transform="translate(21.333 2.295)"/>
        <g transform="translate(20 2.295)">
            <use fill="#000" filter="url(#04ufdjyrkh)" xlink:href="#2mr4yohusi"/>
            <use fill-opacity=".412" fill="#146F4C" xlink:href="#2mr4yohusi"/>
            <use fill="#000" filter="url(#esckn9s89j)" xlink:href="#2mr4yohusi"/>
        </g>
    </g>
</svg>
