<svg width="108" height="140" viewBox="0 0 108 140" xmlns="http://www.w3.org/2000/svg" xmlns:xlink="http://www.w3.org/1999/xlink">
    <defs>
        <linearGradient x1="50%" y1="2.576%" x2="50%" y2="100%" id="n4zh3mw8hb">
            <stop stop-color="#BCF596" offset="0%"/>
            <stop stop-color="#3FD576" offset="100%"/>
        </linearGradient>
        <linearGradient x1="50%" y1="9.894%" x2="71.662%" y2="81.159%" id="njnd2adpah">
            <stop stop-color="#2DAF8A" offset="0%"/>
            <stop stop-color="#1F5946" offset="100%"/>
        </linearGradient>
        <filter x="-1.5%" y="-2.8%" width="103%" height="111.1%" filterUnits="objectBoundingBox" id="i0hdtnvroe">
            <feOffset dy="2" in="SourceAlpha" result="shadowOffsetOuter1"/>
            <feComposite in="shadowOffsetOuter1" in2="SourceAlpha" operator="out" result="shadowOffsetOuter1"/>
            <feColorMatrix values="0 0 0 0 0.732530978 0 0 0 0 1 0 0 0 0 0.556383384 0 0 0 0.462767701 0" in="shadowOffsetOuter1"/>
        </filter>
        <filter x="-10.6%" y="-19.4%" width="121.2%" height="144.4%" filterUnits="objectBoundingBox" id="u26u9ml9hg">
            <feGaussianBlur stdDeviation="4" in="SourceAlpha" result="shadowBlurInner1"/>
            <feOffset dy="6" in="shadowBlurInner1" result="shadowOffsetInner1"/>
            <feComposite in="shadowOffsetInner1" in2="SourceAlpha" operator="arithmetic" k2="-1" k3="1" result="shadowInnerInner1"/>
            <feColorMatrix values="0 0 0 0 0 0 0 0 0 0 0 0 0 0 0 0 0 0 0.559959572 0" in="shadowInnerInner1"/>
        </filter>
        <path d="M44 0c10.838 0 19.998 7.782 22.978 18.47C79.588 26.206 88 40.12 88 56c0 24.3-19.7 44-44 44S0 80.3 0 56c0-15.88 8.412-29.794 21.022-37.53C24.002 7.781 33.162 0 44 0z" id="pcgp7djxya"/>
        <path d="M33 100.424c13.669 0 24.75-10.125 24.75-14.17 0-4.044-6.782 6.847-24.75 6.847S8.25 82.211 8.25 86.255c0 4.044 11.081 14.169 24.75 14.169zm-21.509-36c6.346 0 11.491 5.22 11.491 11.661 0 6.44-5.145-2.851-11.49-2.851C5.144 73.234 0 82.525 0 76.085s5.145-11.661 11.491-11.661zm43.018 0c6.346 0 11.491 5.22 11.491 11.661 0 6.44-5.145-2.851-11.491-2.851s-11.491 9.291-11.491 2.851 5.145-11.661 11.49-11.661z" id="o0977ulrcf"/>
        <radialGradient cx="50%" cy="50.788%" fx="50%" fy="50.788%" r="49.212%" id="n6vbhrl5hd">
            <stop stop-color="#FF8100" stop-opacity=".242" offset="0%"/>
            <stop stop-color="#B3A100" stop-opacity="0" offset="100%"/>
        </radialGradient>
    </defs>
    <g fill="none" fill-rule="evenodd">
        <g transform="translate(10 34)">
            <mask id="pa2vm85mtc" fill="#fff">
                <use xlink:href="#pcgp7djxya"/>
            </mask>
            <use fill="url(#n4zh3mw8hb)" fill-rule="nonzero" xlink:href="#pcgp7djxya"/>
            <path d="M44 1.5c5.001 0 9.618 1.778 13.347 4.776 3.856 3.1 6.765 7.5 8.186 12.597.053.19.103.379.152.569.17.1.34.203.509.307C78.374 27.22 86.5 40.662 86.5 56c0 11.736-4.757 22.361-12.448 30.052C66.362 93.743 55.736 98.5 44 98.5s-22.361-4.757-30.052-12.448C6.257 78.362 1.5 67.736 1.5 56c0-15.338 8.126-28.779 20.306-36.252l.51-.309c.048-.189.098-.378.15-.567 1.422-5.097 4.331-9.497 8.187-12.597C34.383 3.278 39 1.5 44 1.5z" stroke-opacity=".402" stroke="#A8E38A" stroke-width="3" mask="url(#pa2vm85mtc)"/>
            <circle fill="url(#n6vbhrl5hd)" mask="url(#pa2vm85mtc)" cx="72" cy="61" r="14"/>
            <circle fill="url(#n6vbhrl5hd)" mask="url(#pa2vm85mtc)" cx="16" cy="61" r="14"/>
        </g>
        <g transform="translate(21 8.576)">
            <use fill="#000" filter="url(#i0hdtnvroe)" xlink:href="#o0977ulrcf"/>
            <use fill-opacity=".412" fill="#206F14" xlink:href="#o0977ulrcf"/>
            <use fill="#000" filter="url(#u26u9ml9hg)" xlink:href="#o0977ulrcf"/>
        </g>
        <path d="M40.6 12.813c.578-2.045-.65-4.166-2.685-4.635l-1.443-.333-.06-.013c-2.037-.47-4.04.908-4.378 3.01L29.162 27.89c-.21 1.311.603 2.567 1.868 2.884l.03.036.72.152.722.18.006-.027c1.277.27 2.54-.51 2.902-1.788l5.19-16.514zM6.024 1.164C5.46 6.526 7.81 12.261 12.63 15.95c4.82 3.688 10.848 4.367 15.698 2.285.563-5.362-1.787-11.096-6.606-14.785C16.903-.239 10.874-.917 6.024 1.164" fill="url(#njnd2adpah)" transform="translate(21 8.576)"/>
    </g>
</svg>
