<svg width="108" height="140" viewBox="0 0 108 140" xmlns="http://www.w3.org/2000/svg" xmlns:xlink="http://www.w3.org/1999/xlink">
    <defs>
        <linearGradient x1="50%" y1="2.576%" x2="50%" y2="100%" id="xe7cx65tmb">
            <stop stop-color="#AAFF5B" offset="0%"/>
            <stop stop-color="#7E6EC3" offset="100%"/>
        </linearGradient>
        <linearGradient x1="50%" y1="14.896%" x2="71.662%" y2="77.272%" id="roea7fm6qh">
            <stop stop-color="#5ED87A" offset="0%"/>
            <stop stop-color="#25924C" offset="99.992%"/>
        </linearGradient>
        <filter x="-1.6%" y="-1.9%" width="103.1%" height="107.4%" filterUnits="objectBoundingBox" id="k0hyev4xje">
            <feOffset dy="2" in="SourceAlpha" result="shadowOffsetOuter1"/>
            <feComposite in="shadowOffsetOuter1" in2="SourceAlpha" operator="out" result="shadowOffsetOuter1"/>
            <feColorMatrix values="0 0 0 0 0.556383384 0 0 0 0 1 0 0 0 0 0.794890329 0 0 0 0.225114729 0" in="shadowOffsetOuter1"/>
        </filter>
        <filter x="-10.9%" y="-13%" width="121.9%" height="129.6%" filterUnits="objectBoundingBox" id="nj5mi308ug">
            <feGaussianBlur stdDeviation="4" in="SourceAlpha" result="shadowBlurInner1"/>
            <feOffset dy="6" in="shadowBlurInner1" result="shadowOffsetInner1"/>
            <feComposite in="shadowOffsetInner1" in2="SourceAlpha" operator="arithmetic" k2="-1" k3="1" result="shadowInnerInner1"/>
            <feColorMatrix values="0 0 0 0 0 0 0 0 0 0 0 0 0 0 0 0 0 0 0.559959572 0" in="shadowInnerInner1"/>
        </filter>
        <path d="M44 0c10.838 0 19.998 7.782 22.978 18.47C79.588 26.206 88 40.12 88 56c0 24.3-19.7 44-44 44S0 80.3 0 56c0-15.88 8.412-29.794 21.022-37.53C24.002 7.781 33.162 0 44 0z" id="ntd4biymia"/>
        <path d="M11.54 81.318c4.425 0 8.012-4.03 8.012-9s-3.587-9-8.011-9c-4.425 0-8.011 4.03-8.011 9s3.586 9 8.01 9zm40.055 0c4.425 0 8.011-4.03 8.011-9s-3.586-9-8.01-9c-4.425 0-8.012 4.03-8.012 9s3.587 9 8.011 9zm-7.858 6.226c1.215-.517 2.598.1 3.09 1.38.49 1.28-.096 2.738-1.31 3.256-2.755 1.174-4.212 2.801-4.212 4.182 0 1.381 1.457 3.008 4.211 4.182 1.215.518 1.802 1.976 1.31 3.256-.491 1.28-1.874 1.897-3.089 1.38-3.206-1.367-5.58-3.435-6.611-5.951H26.874c-1.03 2.516-3.405 4.584-6.611 5.95-1.215.518-2.598-.1-3.09-1.38-.49-1.28.096-2.737 1.31-3.255 2.755-1.174 4.212-2.8 4.212-4.182 0-1.381-1.457-3.008-4.211-4.182-1.215-.518-1.802-1.975-1.31-3.255.491-1.28 1.874-1.898 3.089-1.38 3.092 1.317 5.41 3.288 6.496 5.684h10.482c1.085-2.396 3.404-4.367 6.496-5.685zM7.754 59.21c3.77-2.17 6.43-5.477 5.942-7.387-.489-1.91-2.84 2.604-6.61 4.774-3.77 2.17-7.532 1.174-7.043 3.084.489 1.91 3.94 1.7 7.71-.47zm48.488 0c-3.77-2.17-6.43-5.477-5.942-7.387.488-1.91 2.84 2.604 6.61 4.774 3.77 2.17 7.531 1.174 7.043 3.084-.49 1.91-3.941 1.7-7.711-.47z" id="uoinow0waf"/>
        <radialGradient cx="50%" cy="50.788%" fx="50%" fy="50.788%" r="49.212%" id="q50ckb28rd">
            <stop stop-color="#5E884B" stop-opacity=".615" offset="0%"/>
            <stop stop-color="#516A3A" stop-opacity="0" offset="100%"/>
        </radialGradient>
    </defs>
    <g fill="none" fill-rule="evenodd">
        <g transform="translate(10 34)">
            <mask id="0tqewwsecc" fill="#fff">
                <use xlink:href="#ntd4biymia"/>
            </mask>
            <use fill="url(#xe7cx65tmb)" fill-rule="nonzero" xlink:href="#ntd4biymia"/>
            <path d="M44 1.5c5.001 0 9.618 1.778 13.347 4.776 3.856 3.1 6.765 7.5 8.186 12.597.053.19.103.379.152.569.17.1.34.203.509.307C78.374 27.22 86.5 40.662 86.5 56c0 11.736-4.757 22.361-12.448 30.052C66.362 93.743 55.736 98.5 44 98.5s-22.361-4.757-30.052-12.448C6.257 78.362 1.5 67.736 1.5 56c0-15.338 8.126-28.779 20.306-36.252l.51-.309c.048-.189.098-.378.15-.567 1.422-5.097 4.331-9.497 8.187-12.597C34.383 3.278 39 1.5 44 1.5z" stroke-opacity=".402" stroke="#AFD3EE" stroke-width="3" mask="url(#0tqewwsecc)"/>
            <circle fill="url(#q50ckb28rd)" mask="url(#0tqewwsecc)" cx="72" cy="69" r="14"/>
            <circle fill="url(#q50ckb28rd)" mask="url(#0tqewwsecc)" cx="16" cy="69" r="14"/>
        </g>
        <g transform="translate(22.002 13.632)">
            <use fill="#000" filter="url(#k0hyev4xje)" xlink:href="#uoinow0waf"/>
            <use fill-opacity=".412" fill="#146F3B" xlink:href="#uoinow0waf"/>
            <use fill="#000" filter="url(#nj5mi308ug)" xlink:href="#uoinow0waf"/>
        </g>
        <path d="M31.032 5.787c.338-2.102 2.34-3.48 4.377-3.01l.061.013 1.442.332c2.035.47 3.263 2.59 2.686 4.635l-5.19 16.515c-.362 1.277-1.626 2.057-2.902 1.788l-.007.027-.72-.18-.721-.152-.03-.036c-1.265-.317-2.078-1.573-1.868-2.885zM12.936 5.57C17.03 1.09 22.948-.75 28.24.278c1.651 5.013.45 10.96-3.644 15.439-4.094 4.479-10.012 6.32-15.304 5.292-1.651-5.013-.45-10.96 3.644-15.44z" fill="url(#roea7fm6qh)" transform="translate(22.002 13.632)"/>
    </g>
</svg>
