<svg width="108" height="140" viewBox="0 0 108 140" xmlns="http://www.w3.org/2000/svg" xmlns:xlink="http://www.w3.org/1999/xlink">
    <defs>
        <linearGradient x1="50%" y1="2.576%" x2="50%" y2="100%" id="mj8wiwrmcb">
            <stop stop-color="#DCFF75" offset="0%"/>
            <stop stop-color="#E6CE5F" offset="100%"/>
        </linearGradient>
        <linearGradient x1="50%" y1="0%" x2="69.169%" y2="88.845%" id="p4j0l6rhaf">
            <stop stop-color="#A9AF2D" offset="0%"/>
            <stop stop-color="#225323" offset="100%"/>
        </linearGradient>
        <linearGradient x1="42.653%" y1="57.161%" x2="70.568%" y2="29.55%" id="dswqkeip9j">
            <stop stop-color="#3D3D3D" offset="0%"/>
            <stop stop-color="#3D3D3D" offset="38.265%"/>
            <stop stop-color="#7F8978" offset="100%"/>
        </linearGradient>
        <filter x="-7.4%" y="-6.5%" width="114.8%" height="113%" filterUnits="objectBoundingBox" id="yht0yfaw2c">
            <feGaussianBlur stdDeviation="2.5" in="SourceAlpha" result="shadowBlurInner1"/>
            <feOffset dy="-8" in="shadowBlurInner1" result="shadowOffsetInner1"/>
            <feComposite in="shadowOffsetInner1" in2="SourceAlpha" operator="arithmetic" k2="-1" k3="1" result="shadowInnerInner1"/>
            <feColorMatrix values="0 0 0 0 0 0 0 0 0 0 0 0 0 0 0 0 0 0 0.1 0" in="shadowInnerInner1"/>
        </filter>
        <filter x="-1.7%" y="-2.1%" width="103.4%" height="108.4%" filterUnits="objectBoundingBox" id="1gnj1fsyhg">
            <feOffset dy="2" in="SourceAlpha" result="shadowOffsetOuter1"/>
            <feComposite in="shadowOffsetOuter1" in2="SourceAlpha" operator="out" result="shadowOffsetOuter1"/>
            <feColorMatrix values="0 0 0 0 1 0 0 0 0 0.907491006 0 0 0 0 0.556383384 0 0 0 0.462767701 0" in="shadowOffsetOuter1"/>
        </filter>
        <filter x="-12.1%" y="-14.8%" width="124.1%" height="133.7%" filterUnits="objectBoundingBox" id="ho1t0ro3li">
            <feGaussianBlur stdDeviation="4" in="SourceAlpha" result="shadowBlurInner1"/>
            <feOffset dy="6" in="shadowBlurInner1" result="shadowOffsetInner1"/>
            <feComposite in="shadowOffsetInner1" in2="SourceAlpha" operator="arithmetic" k2="-1" k3="1" result="shadowInnerInner1"/>
            <feColorMatrix values="0 0 0 0 0 0 0 0 0 0 0 0 0 0 0 0 0 0 0.559959572 0" in="shadowInnerInner1"/>
        </filter>
        <path d="M44 0c10.838 0 19.998 7.782 22.978 18.47C79.588 26.206 88 40.12 88 56c0 24.3-19.7 44-44 44S0 80.3 0 56c0-15.88 8.412-29.794 21.022-37.53C24.002 7.781 33.162 0 44 0z" id="j6n1fneuta"/>
        <path d="M34.35 95.286v-.692c0-1.744 1.453-3.157 3.246-3.157.298 0 .594.04.88.118l2.699.739a25.866 25.866 0 0 0 13.65 0l2.7-.74c1.725-.472 3.518.506 4.003 2.184.081.278.122.566.122.856v.692c0 2.177-1.098 4.216-2.938 5.456l-3.887 2.62c-4.105 2.766-9.545 2.766-13.65 0l-3.887-2.62c-1.84-1.24-2.938-3.279-2.938-5.456zM27.78 79c4.85 0 8.78-4.701 8.78-10.5S32.63 58 27.78 58C22.931 58 19 62.701 19 68.5S22.931 79 27.78 79zm40.44 0C73.069 79 77 74.299 77 68.5S73.069 58 68.22 58c-4.85 0-8.78 4.701-8.78 10.5S63.37 79 68.22 79z" id="0w8l9tu4zh"/>
        <radialGradient cx="50%" cy="50%" fx="50%" fy="50%" r="40.36%" id="wjc7ui902e">
            <stop stop-color="#EA00FF" stop-opacity=".81" offset="0%"/>
            <stop stop-color="#AB00FF" stop-opacity="0" offset="100%"/>
        </radialGradient>
    </defs>
    <g fill="none" fill-rule="evenodd">
        <g transform="translate(10 34)">
            <mask id="9kq1azovxd" fill="#fff">
                <use xlink:href="#j6n1fneuta"/>
            </mask>
            <g fill-rule="nonzero">
                <use fill="url(#mj8wiwrmcb)" xlink:href="#j6n1fneuta"/>
                <use fill="#000" filter="url(#yht0yfaw2c)" xlink:href="#j6n1fneuta"/>
            </g>
            <path d="M44 1.5c5.001 0 9.618 1.778 13.347 4.776 3.856 3.1 6.765 7.5 8.186 12.597.053.19.103.379.152.569.17.1.34.203.509.307C78.374 27.22 86.5 40.662 86.5 56c0 11.736-4.757 22.361-12.448 30.052C66.362 93.743 55.736 98.5 44 98.5s-22.361-4.757-30.052-12.448C6.257 78.362 1.5 67.736 1.5 56c0-15.338 8.126-28.779 20.306-36.252l.51-.309c.048-.189.098-.378.15-.567 1.422-5.097 4.331-9.497 8.187-12.597C34.383 3.278 39 1.5 44 1.5z" stroke-opacity=".2" stroke="#968534" stroke-width="3" mask="url(#9kq1azovxd)"/>
            <circle fill="url(#wjc7ui902e)" opacity=".325" mask="url(#9kq1azovxd)" cx="12" cy="56" r="16"/>
            <circle fill="url(#wjc7ui902e)" opacity=".325" mask="url(#9kq1azovxd)" cx="76" cy="56" r="16"/>
        </g>
        <path d="M55.6 15.389c.578-2.045-.65-4.166-2.685-4.635l-1.443-.333-.06-.013c-2.037-.47-4.04.908-4.378 3.01l-2.872 17.048c-.21 1.311.603 2.567 1.868 2.884l.03.036.72.152.722.18.006-.027c1.277.27 2.54-.51 2.902-1.788L55.6 15.39zM25.021.145c-1.932 5.033-1.145 11.181 2.555 15.99 3.7 4.81 9.348 7.026 14.571 6.27 1.932-5.032 1.146-11.18-2.554-15.99-3.7-4.81-9.348-7.026-14.572-6.27" fill="url(#p4j0l6rhaf)" transform="translate(6 6)"/>
        <g transform="translate(6 6)">
            <use fill="#000" filter="url(#1gnj1fsyhg)" xlink:href="#0w8l9tu4zh"/>
            <use fill-opacity=".412" fill="#6F4B14" xlink:href="#0w8l9tu4zh"/>
            <use fill="#000" filter="url(#ho1t0ro3li)" xlink:href="#0w8l9tu4zh"/>
        </g>
        <path d="M22.38 89.79C10.02 89.79 0 79.765 0 67.396 0 55.027 10.02 45 22.38 45s22.381 10.027 22.381 22.395h6.478C51.239 55.027 61.259 45 73.619 45S96 55.027 96 67.395c0 12.369-10.02 22.396-22.38 22.396-10.39 0-19.125-7.084-21.647-16.687h-7.946C41.505 82.707 32.77 89.79 22.38 89.79zm51.24-39.52c-9.453 0-17.115 7.667-17.115 17.125 0 9.459 7.662 17.126 17.115 17.126 9.452 0 17.114-7.667 17.114-17.126 0-9.458-7.662-17.126-17.114-17.126zm-51.24 0c-9.452 0-17.114 7.667-17.114 17.125 0 9.459 7.662 17.126 17.114 17.126 9.453 0 17.115-7.667 17.115-17.126 0-9.458-7.662-17.126-17.115-17.126z" fill="url(#dswqkeip9j)" transform="translate(6 6)"/>
    </g>
</svg>
