<svg width="108" height="140" viewBox="0 0 108 140" xmlns="http://www.w3.org/2000/svg" xmlns:xlink="http://www.w3.org/1999/xlink">
    <defs>
        <linearGradient x1="50%" y1="2.576%" x2="50%" y2="100%" id="4wmdg568db">
            <stop stop-color="#C4EE8F" offset="0%"/>
            <stop stop-color="#A0A63F" offset="100%"/>
        </linearGradient>
        <linearGradient x1="50%" y1="9.894%" x2="71.662%" y2="81.159%" id="zttk5jpgre">
            <stop stop-color="#2DAF8A" offset="0%"/>
            <stop stop-color="#1F5946" offset="100%"/>
        </linearGradient>
        <filter x="-2.2%" y="-2%" width="104.3%" height="108%" filterUnits="objectBoundingBox" id="5l1fggd8yf">
            <feOffset dy="2" in="SourceAlpha" result="shadowOffsetOuter1"/>
            <feComposite in="shadowOffsetOuter1" in2="SourceAlpha" operator="out" result="shadowOffsetOuter1"/>
            <feColorMatrix values="0 0 0 0 0.762050484 0 0 0 0 1 0 0 0 0 0.556383384 0 0 0 0.332386364 0" in="shadowOffsetOuter1"/>
        </filter>
        <filter x="-15.2%" y="-14%" width="130.4%" height="132%" filterUnits="objectBoundingBox" id="mqeira0fkh">
            <feGaussianBlur stdDeviation="4" in="SourceAlpha" result="shadowBlurInner1"/>
            <feOffset dy="6" in="shadowBlurInner1" result="shadowOffsetInner1"/>
            <feComposite in="shadowOffsetInner1" in2="SourceAlpha" operator="arithmetic" k2="-1" k3="1" result="shadowInnerInner1"/>
            <feColorMatrix values="0 0 0 0 0 0 0 0 0 0 0 0 0 0 0 0 0 0 0.559959572 0" in="shadowInnerInner1"/>
        </filter>
        <path d="M44 0c10.838 0 19.998 7.782 22.978 18.47C79.588 26.206 88 40.12 88 56c0 24.3-19.7 44-44 44S0 80.3 0 56c0-15.88 8.412-29.794 21.022-37.53C24.002 7.781 33.162 0 44 0z" id="ozzpln4uea"/>
        <path d="M11.725 73.809c4.234 0 7.667-3.444 7.667-7.693 0-4.248-3.433-7.692-7.667-7.692s-7.667 3.444-7.667 7.692c0 4.249 3.433 7.693 7.667 7.693zm30.667 0c4.234 0 7.666-3.444 7.666-7.693 0-4.248-3.432-7.692-7.666-7.692-4.235 0-7.667 3.444-7.667 7.692 0 4.249 3.432 7.693 7.667 7.693zm-15.334 34.615c6.352 0 11.5-6.027 11.5-13.462 0-7.434-5.148-13.461-11.5-13.461-6.351 0-11.5 6.027-11.5 13.461 0 7.435 5.149 13.462 11.5 13.462z" id="uiqwo57kqg"/>
        <radialGradient cx="50%" cy="50.788%" fx="50%" fy="50.788%" r="49.212%" id="8knw4bbrfc">
            <stop stop-color="#FF8100" stop-opacity=".242" offset="0%"/>
            <stop stop-color="#B3A100" stop-opacity="0" offset="100%"/>
        </radialGradient>
    </defs>
    <g fill="none" fill-rule="evenodd">
        <g transform="translate(10 34)">
            <mask id="67via7zcxd" fill="#fff">
                <use xlink:href="#ozzpln4uea"/>
            </mask>
            <use fill="url(#4wmdg568db)" fill-rule="nonzero" xlink:href="#ozzpln4uea"/>
            <circle fill="url(#8knw4bbrfc)" mask="url(#67via7zcxd)" cx="72" cy="61" r="14"/>
            <circle fill="url(#8knw4bbrfc)" mask="url(#67via7zcxd)" cx="16" cy="61" r="14"/>
            <path d="M44 1.5c5.001 0 9.618 1.778 13.347 4.776 3.856 3.1 6.765 7.5 8.186 12.597.053.19.103.379.152.569.17.1.34.203.509.307C78.374 27.22 86.5 40.662 86.5 56c0 11.736-4.757 22.361-12.448 30.052C66.362 93.743 55.736 98.5 44 98.5s-22.361-4.757-30.052-12.448C6.257 78.362 1.5 67.736 1.5 56c0-15.338 8.126-28.779 20.306-36.252l.51-.309c.048-.189.098-.378.15-.567 1.422-5.097 4.331-9.497 8.187-12.597C34.383 3.278 39 1.5 44 1.5z" stroke-opacity=".402" stroke="#B7DF84" stroke-width="3" mask="url(#67via7zcxd)"/>
        </g>
        <path d="M34.658 12.813c.578-2.045-.65-4.166-2.685-4.635l-1.443-.333-.06-.013c-2.037-.47-4.04.908-4.378 3.01L23.221 27.89c-.21 1.311.603 2.567 1.867 2.884l.03.036.72.152.722.18.006-.027c1.277.27 2.54-.51 2.902-1.788l5.19-16.514zM.082 1.164C-.48 6.526 1.87 12.261 6.688 15.95c4.82 3.688 10.848 4.367 15.698 2.285.564-5.362-1.787-11.096-6.606-14.785C10.961-.239 4.932-.917.082 1.164" fill="url(#zttk5jpgre)" transform="translate(26.942 8.576)"/>
        <g transform="translate(26.942 8.576)">
            <use fill="#000" filter="url(#5l1fggd8yf)" xlink:href="#uiqwo57kqg"/>
            <use fill-opacity=".412" fill="#6F6B14" xlink:href="#uiqwo57kqg"/>
            <use fill="#000" filter="url(#mqeira0fkh)" xlink:href="#uiqwo57kqg"/>
        </g>
    </g>
</svg>
