<svg width="108" height="140" viewBox="0 0 108 140" xmlns="http://www.w3.org/2000/svg" xmlns:xlink="http://www.w3.org/1999/xlink">
    <defs>
        <linearGradient x1="50%" y1="2.576%" x2="50%" y2="100%" id="dvw0n4bhrb">
            <stop stop-color="#E9FF94" offset="0%"/>
            <stop stop-color="#B6E526" offset="100%"/>
        </linearGradient>
        <linearGradient x1="50%" y1="17.835%" x2="71.662%" y2="74.989%" id="b98teh8rde">
            <stop stop-color="#4DC358" offset="0%"/>
            <stop stop-color="#145A2A" offset="100%"/>
        </linearGradient>
        <linearGradient x1="50%" y1="0%" x2="50%" y2="100%" id="wm1jn68z5k">
            <stop stop-color="#F1855B" offset="0%"/>
            <stop stop-color="#D15221" offset="100%"/>
        </linearGradient>
        <filter x="-1.7%" y="-2%" width="103.4%" height="107.8%" filterUnits="objectBoundingBox" id="meo7nf8sdf">
            <feOffset dy="2" in="SourceAlpha" result="shadowOffsetOuter1"/>
            <feComposite in="shadowOffsetOuter1" in2="SourceAlpha" operator="out" result="shadowOffsetOuter1"/>
            <feColorMatrix values="0 0 0 0 0.971813477 0 0 0 0 1 0 0 0 0 0.556383384 0 0 0 0.462767701 0" in="shadowOffsetOuter1"/>
        </filter>
        <filter x="-12%" y="-13.7%" width="124%" height="131.2%" filterUnits="objectBoundingBox" id="z83d4zcn3h">
            <feGaussianBlur stdDeviation="4" in="SourceAlpha" result="shadowBlurInner1"/>
            <feOffset dy="6" in="shadowBlurInner1" result="shadowOffsetInner1"/>
            <feComposite in="shadowOffsetInner1" in2="SourceAlpha" operator="arithmetic" k2="-1" k3="1" result="shadowInnerInner1"/>
            <feColorMatrix values="0 0 0 0 0 0 0 0 0 0 0 0 0 0 0 0 0 0 0.559959572 0" in="shadowInnerInner1"/>
        </filter>
        <filter x="-1.2%" y="-1.1%" width="103.5%" height="104.5%" filterUnits="objectBoundingBox" id="18i9w9p8li">
            <feOffset dx=".2" dy=".5" in="SourceAlpha" result="shadowOffsetOuter1"/>
            <feColorMatrix values="0 0 0 0 1 0 0 0 0 1 0 0 0 0 1 0 0 0 0.5 0" in="shadowOffsetOuter1"/>
        </filter>
        <path d="M44 0c10.838 0 19.998 7.782 22.978 18.47C79.588 26.206 88 40.12 88 56c0 24.3-19.7 44-44 44S0 80.3 0 56c0-15.88 8.412-29.794 21.022-37.53C24.002 7.781 33.162 0 44 0z" id="vtus6q3aoa"/>
        <path d="M10.406 77.149c4.547-.64 7.684-5.065 7.006-9.885-.677-4.82-4.912-8.21-9.459-7.57-4.547.639-7.683 5.064-7.006 9.884.678 4.82 4.913 8.21 9.46 7.57zm39.114 0c4.547.639 8.782-2.75 9.459-7.57.677-4.82-2.46-9.246-7.006-9.885-4.547-.64-8.782 2.75-9.459 7.57-.677 4.82 2.46 9.246 7.006 9.885zM29.598 110.85c10.433 0 18.89-20.837 18.89-23.878 0-3.042-5.177 5.149-18.89 5.149-13.712 0-18.888-8.19-18.888-5.15 0 3.042 8.456 23.88 18.888 23.88z" id="riqn7b5ugg"/>
        <path d="m38.412 97.295 1.158 8.608c.994 7.396-3.42 13.392-9.86 13.392-6.44 0-10.855-5.996-9.86-13.392l1.158-8.608h17.404z" id="dj7wp3q6zj"/>
        <radialGradient cx="50%" cy="50.497%" fx="50%" fy="50.497%" r="49.503%" id="d3jfvdasjd">
            <stop stop-color="#3CB205" stop-opacity=".548" offset="0%"/>
            <stop stop-color="#B3A100" stop-opacity="0" offset="100%"/>
        </radialGradient>
    </defs>
    <g fill="none" fill-rule="evenodd">
        <g transform="translate(10 34)">
            <mask id="7k14z7hz0c" fill="#fff">
                <use xlink:href="#vtus6q3aoa"/>
            </mask>
            <use fill="url(#dvw0n4bhrb)" fill-rule="nonzero" xlink:href="#vtus6q3aoa"/>
            <path d="M44 1.5c5.001 0 9.618 1.778 13.347 4.776 3.856 3.1 6.765 7.5 8.186 12.597.053.19.103.379.152.569.17.1.34.203.509.307C78.374 27.22 86.5 40.662 86.5 56c0 11.736-4.757 22.361-12.448 30.052C66.362 93.743 55.736 98.5 44 98.5s-22.361-4.757-30.052-12.448C6.257 78.362 1.5 67.736 1.5 56c0-15.338 8.126-28.779 20.306-36.252l.51-.309c.048-.189.098-.378.15-.567 1.422-5.097 4.331-9.497 8.187-12.597C34.383 3.278 39 1.5 44 1.5z" stroke-opacity=".402" stroke="#B1E8A0" stroke-width="3" mask="url(#7k14z7hz0c)"/>
            <circle fill="url(#d3jfvdasjd)" opacity=".38" mask="url(#7k14z7hz0c)" cx="79" cy="69.5" r="17.5"/>
            <circle fill="url(#d3jfvdasjd)" opacity=".38" mask="url(#7k14z7hz0c)" cx="9" cy="69.5" r="17.5"/>
        </g>
        <path d="M37.31 11.683c.577-2.045-.65-4.165-2.686-4.634l-1.442-.333-.06-.014c-2.037-.47-4.04.909-4.378 3.01L25.872 26.76c-.21 1.312.603 2.568 1.868 2.885l.03.036.72.152.721.18.007-.027c1.276.27 2.54-.51 2.901-1.788l5.19-16.515zM0 2.986c.75 5.339 4.419 10.335 9.987 12.747 5.568 2.413 11.581 1.613 15.784-1.58-.75-5.339-4.419-10.334-9.986-12.747C10.217-1.007 4.203-.207 0 2.986" fill="url(#b98teh8rde)" transform="translate(24.29 9.705)"/>
        <g transform="translate(24.29 9.705)">
            <use fill="#000" filter="url(#meo7nf8sdf)" xlink:href="#riqn7b5ugg"/>
            <use fill-opacity=".412" fill="#6F4B14" xlink:href="#riqn7b5ugg"/>
            <use fill="#000" filter="url(#z83d4zcn3h)" xlink:href="#riqn7b5ugg"/>
        </g>
        <g transform="translate(24.29 9.705)">
            <use fill="#000" filter="url(#18i9w9p8li)" xlink:href="#dj7wp3q6zj"/>
            <use fill="url(#wm1jn68z5k)" xlink:href="#dj7wp3q6zj"/>
        </g>
    </g>
</svg>
