<svg width="108" height="140" viewBox="0 0 108 140" xmlns="http://www.w3.org/2000/svg" xmlns:xlink="http://www.w3.org/1999/xlink">
    <defs>
        <linearGradient x1="50%" y1="2.576%" x2="50%" y2="100%" id="arw34qpsgb">
            <stop stop-color="#CDE347" offset="0%"/>
            <stop stop-color="#FDB102" offset="100%"/>
        </linearGradient>
        <linearGradient x1="50%" y1="20.016%" x2="71.662%" y2="73.295%" id="zxqxneelue">
            <stop stop-color="#2DAF8A" offset="0%"/>
            <stop stop-color="#1F5946" offset="100%"/>
        </linearGradient>
        <linearGradient x1="50%" y1="0%" x2="50%" y2="100%" id="zszfy3x8ni">
            <stop stop-color="#00D4FE" offset="0%"/>
            <stop stop-color="#199DB3" offset="100%"/>
        </linearGradient>
        <linearGradient x1="50%" y1="0%" x2="50%" y2="100%" id="kl0xz8z4rj">
            <stop stop-color="#00D4FE" offset="0%"/>
            <stop stop-color="#199DB3" offset="100%"/>
        </linearGradient>
        <filter x="-1.5%" y="-2.1%" width="102.9%" height="108.3%" filterUnits="objectBoundingBox" id="s232ldrvvf">
            <feOffset dy="2" in="SourceAlpha" result="shadowOffsetOuter1"/>
            <feComposite in="shadowOffsetOuter1" in2="SourceAlpha" operator="out" result="shadowOffsetOuter1"/>
            <feColorMatrix values="0 0 0 0 1 0 0 0 0 0.907491006 0 0 0 0 0.556383384 0 0 0 0.462767701 0" in="shadowOffsetOuter1"/>
        </filter>
        <filter x="-10.3%" y="-14.6%" width="120.6%" height="133.3%" filterUnits="objectBoundingBox" id="fbb0wn5a4h">
            <feGaussianBlur stdDeviation="4" in="SourceAlpha" result="shadowBlurInner1"/>
            <feOffset dy="6" in="shadowBlurInner1" result="shadowOffsetInner1"/>
            <feComposite in="shadowOffsetInner1" in2="SourceAlpha" operator="arithmetic" k2="-1" k3="1" result="shadowInnerInner1"/>
            <feColorMatrix values="0 0 0 0 0 0 0 0 0 0 0 0 0 0 0 0 0 0 0.559959572 0" in="shadowInnerInner1"/>
        </filter>
        <path d="M44 0c10.838 0 19.998 7.782 22.978 18.47C79.588 26.206 88 40.12 88 56c0 24.3-19.7 44-44 44S0 80.3 0 56c0-15.88 8.412-29.794 21.022-37.53C24.002 7.781 33.162 0 44 0z" id="svyr5guoya"/>
        <path d="M39.862 84.32h.3a7.85 7.85 0 0 1 7.85 7.849v8.3a7.85 7.85 0 0 1-7.85 7.85h-.3a7.85 7.85 0 0 1-7.85-7.85v-8.3a7.85 7.85 0 0 1 7.85-7.85zm-21.992-15c4.891 0 8.857 4.005 8.857 8.947 0 4.941-3.966-2.188-8.857-2.188-4.892 0-8.857 7.13-8.857 2.188s3.965-8.948 8.857-8.948zm44.285 0c4.892 0 8.858 4.005 8.858 8.947 0 4.941-3.966-2.188-8.858-2.188-4.891 0-8.857 7.13-8.857 2.188s3.966-8.948 8.857-8.948zM9.943 61.357c2.872-1.479 5.863-1.365 6.68.254.816 1.619-2.69.482-5.563 1.96-2.873 1.479-4.023 5.013-4.84 3.394-.816-1.619.85-4.13 3.723-5.608zm60.14 0c-2.873-1.479-5.863-1.365-6.68.254-.817 1.619 2.69.482 5.563 1.96 2.872 1.479 4.023 5.013 4.84 3.394.816-1.619-.85-4.13-3.723-5.608z" id="kcmq1fe9sg"/>
        <radialGradient cx="50%" cy="50.788%" fx="50%" fy="50.788%" r="49.212%" id="wf7t8goapc">
            <stop stop-color="#FF9D00" stop-opacity=".552" offset="0%"/>
            <stop stop-color="#B3A100" stop-opacity="0" offset="100%"/>
        </radialGradient>
    </defs>
    <g fill="none" fill-rule="evenodd">
        <g transform="translate(10 34)">
            <mask id="nd68qv5aod" fill="#fff">
                <use xlink:href="#svyr5guoya"/>
            </mask>
            <use fill="url(#arw34qpsgb)" fill-rule="nonzero" xlink:href="#svyr5guoya"/>
            <circle fill="url(#wf7t8goapc)" mask="url(#nd68qv5aod)" cx="72" cy="61" r="14"/>
            <circle fill="url(#wf7t8goapc)" mask="url(#nd68qv5aod)" cx="16" cy="61" r="14"/>
            <path d="M44 1.5c5.001 0 9.618 1.778 13.347 4.776 3.856 3.1 6.765 7.5 8.186 12.597.053.19.103.379.152.569.17.1.34.203.509.307C78.374 27.22 86.5 40.662 86.5 56c0 11.736-4.757 22.361-12.448 30.052C66.362 93.743 55.736 98.5 44 98.5s-22.361-4.757-30.052-12.448C6.257 78.362 1.5 67.736 1.5 56c0-15.338 8.126-28.779 20.306-36.252l.51-.309c.048-.189.098-.378.15-.567 1.422-5.097 4.331-9.497 8.187-12.597C34.383 3.278 39 1.5 44 1.5z" stroke-opacity=".402" stroke="#CFCFCF" stroke-width="3" mask="url(#nd68qv5aod)"/>
        </g>
        <path d="M34.751 17.63c.338-2.102 2.341-3.48 4.378-3.01l.06.013 1.443.333c2.035.469 3.263 2.59 2.685 4.634l-5.19 16.515c-.361 1.278-1.625 2.057-2.902 1.788l-.006.027-.721-.18-.72-.152-.03-.036c-1.265-.317-2.079-1.573-1.868-2.885zM18.53 8.218c6.062-.272 11.55 2.61 14.564 7.08-2.377 4.712-7.431 8.067-13.494 8.339-6.062.273-11.55-2.61-14.564-7.08 2.378-4.711 7.432-8.067 13.494-8.34z" fill="url(#zxqxneelue)" transform="rotate(-34 47.074 5.043)"/>
        <g transform="translate(13.987 9.68)">
            <use fill="#000" filter="url(#s232ldrvvf)" xlink:href="#kcmq1fe9sg"/>
            <use fill-opacity=".412" fill="#6F6514" xlink:href="#kcmq1fe9sg"/>
            <use fill="#000" filter="url(#fbb0wn5a4h)" xlink:href="#kcmq1fe9sg"/>
        </g>
        <path d="M4.858 0C6.354 0 7.764.667 9 1.452V48.24H0L0 1.93C1.395.958 3.064 0 4.858 0z" fill="url(#zszfy3x8ni)" transform="translate(27 85.76)"/>
        <path d="M30 86.08V134h-3V87.689c.899-.626 1.912-1.247 3-1.609z" fill-opacity=".786" fill="#FFF"/>
        <path d="M49.143 0c1.794 0 3.463.959 4.858 1.93v46.31h-9V1.452C46.236.667 47.646 0 49.142 0z" fill="url(#kl0xz8z4rj)" transform="translate(27 85.76)"/>
        <path d="M75 85.884V134h-3V87.212c.916-.582 1.928-1.099 3-1.328z" fill-opacity=".786" fill="#FFF"/>
    </g>
</svg>
