<svg width="108" height="140" viewBox="0 0 108 140" xmlns="http://www.w3.org/2000/svg" xmlns:xlink="http://www.w3.org/1999/xlink">
    <defs>
        <linearGradient x1="50%" y1="2.576%" x2="50%" y2="100%" id="z5hvrsb8jb">
            <stop stop-color="#FFCCC4" offset="0%"/>
            <stop stop-color="#FFA800" offset="100%"/>
        </linearGradient>
        <linearGradient x1="50%" y1="2.707%" x2="71.662%" y2="86.742%" id="qolqolx2sd">
            <stop stop-color="#4DC358" offset="0%"/>
            <stop stop-color="#145A2A" offset="100%"/>
        </linearGradient>
        <filter x="-1.5%" y="-2%" width="103%" height="107.8%" filterUnits="objectBoundingBox" id="fm4swwk5be">
            <feOffset dy="2" in="SourceAlpha" result="shadowOffsetOuter1"/>
            <feComposite in="shadowOffsetOuter1" in2="SourceAlpha" operator="out" result="shadowOffsetOuter1"/>
            <feColorMatrix values="0 0 0 0 1 0 0 0 0 0.907491006 0 0 0 0 0.556383384 0 0 0 0.462767701 0" in="shadowOffsetOuter1"/>
        </filter>
        <filter x="-10.6%" y="-13.7%" width="121.2%" height="131.3%" filterUnits="objectBoundingBox" id="nuwl1ouvfg">
            <feGaussianBlur stdDeviation="4" in="SourceAlpha" result="shadowBlurInner1"/>
            <feOffset dy="6" in="shadowBlurInner1" result="shadowOffsetInner1"/>
            <feComposite in="shadowOffsetInner1" in2="SourceAlpha" operator="arithmetic" k2="-1" k3="1" result="shadowInnerInner1"/>
            <feColorMatrix values="0 0 0 0 0 0 0 0 0 0 0 0 0 0 0 0 0 0 0.559959572 0" in="shadowInnerInner1"/>
        </filter>
        <path d="M44 0c10.838 0 19.998 7.782 22.978 18.47C79.588 26.206 88 40.12 88 56c0 24.3-19.7 44-44 44S0 80.3 0 56c0-15.88 8.412-29.794 21.022-37.53C24.002 7.781 33.162 0 44 0z" id="d6rpl90x4a"/>
        <path d="M12.47 66.54a8.313 8.313 0 1 1 0 16.627 8.313 8.313 0 0 1 0-16.626zm41.567 0a8.313 8.313 0 1 1 0 16.627 8.313 8.313 0 0 1 0-16.626zm-4.047-6.163c.906-1.876 5.187-2.676 9.561-1.786 4.374.89 7.185 3.133 6.28 5.01-.435.899-1.175.58-2.31-.094l-.304-.184c-1.204-.729-2.81-1.738-4.906-2.165-4.374-.89-9.227 1.096-8.32-.78zm-33.98 0c.906 1.877-3.947-.109-8.321.781-2.096.427-3.702 1.436-4.906 2.165l-.305.184C1.344 64.18.604 64.5.17 63.6c-.906-1.876 1.905-4.119 6.279-5.009 4.374-.89 8.655-.09 9.56 1.786zm17.4 37.582C46.17 97.775 51 89.05 51 93.482c0 9.274-8.059 15.847-18 15.847s-18-6.573-18-15.847c0-4.48 4.932 4.48 18 4.48z" id="17oymz6jyf"/>
    </defs>
    <g fill="none" fill-rule="evenodd">
        <g transform="translate(10 34)">
            <mask id="ly5w1qsy9c" fill="#fff">
                <use xlink:href="#d6rpl90x4a"/>
            </mask>
            <use fill="url(#z5hvrsb8jb)" fill-rule="nonzero" xlink:href="#d6rpl90x4a"/>
            <path d="M44 1.5c5.001 0 9.618 1.778 13.347 4.776 3.856 3.1 6.765 7.5 8.186 12.597.053.19.103.379.152.569.17.1.34.203.509.307C78.374 27.22 86.5 40.662 86.5 56c0 11.736-4.757 22.361-12.448 30.052C66.362 93.743 55.736 98.5 44 98.5s-22.361-4.757-30.052-12.448C6.257 78.362 1.5 67.736 1.5 56c0-15.338 8.126-28.779 20.306-36.252l.51-.309c.048-.189.098-.378.15-.567 1.422-5.097 4.331-9.497 8.187-12.597C34.383 3.278 39 1.5 44 1.5z" stroke-opacity=".402" stroke="#FFC279" stroke-width="3" mask="url(#ly5w1qsy9c)"/>
        </g>
        <path d="M40.6 13.616c.578-2.045-.65-4.165-2.685-4.635l-1.443-.332-.06-.014c-2.037-.47-4.04.909-4.378 3.01l-2.872 17.048c-.21 1.312.603 2.568 1.868 2.885l.03.036.72.151.722.181.006-.027c1.277.27 2.54-.51 2.902-1.788l5.19-16.515zM8.32.5c-1.304 5.23.226 11.237 4.485 15.56s10.134 5.834 15.226 4.447c1.305-5.23-.225-11.237-4.483-15.56C19.288.624 13.413-.888 8.32.5" fill="url(#qolqolx2sd)" transform="translate(21 7.773)"/>
        <g transform="translate(21 7.773)">
            <use fill="#000" filter="url(#fm4swwk5be)" xlink:href="#17oymz6jyf"/>
            <use fill-opacity=".402" fill="#6F4B14" xlink:href="#17oymz6jyf"/>
            <use fill="#000" filter="url(#nuwl1ouvfg)" xlink:href="#17oymz6jyf"/>
        </g>
    </g>
</svg>
